<svg id="noc" xmlns="http://www.w3.org/2000/svg" viewBox="0 0 1369 768">
  <title>gore1</title>
  <rect width="1369" height="768" fill="none"/>
  <path id="gore1" d="M437.77,479.22c3.11-.35,6.48-.63,9.14,1,3.38,2.09,4.37,6.45,6,10.07,3.38,7.38,10.24,12.47,16.82,17.22,39,28.17,80,57.17,127.56,64.37,34.62,5.25,70-1.61,103.5-11.74,57.37-17.32,111.39-44.08,164.45-71.95,21.65-11.38,44.08-23.21,68.51-24.52,34.28-1.83,65.88,17.24,99.4,24.66,41.13,9.1,84.07.41,124.77-9.94,22.71-5.77,45.18-12.39,67.54-19.41,27.52-8.64,66.83-16.23,97.39-.36a8.45,8.45,0,0,1,4.26,5.32c10.06,37.29,8.65,95.21-15.82,130-14.19,20.16-85.34,9.16-104.83,24.25-67.32,52.15-159.92,52.05-245.07,51.55-168.93-1-340.23,5.39-504.26-35-66.52-16.4-106.17-24.07-184-35.2-13-1.85-9.09-4-18.54-13-12.47-11.88-3.63-42.92,5.56-46.35,31.23-11.65,36-33.34,68.39-41.32A864.46,864.46,0,0,1,437.77,479.22Z" fill="#2a3d54"/>
</svg>
