<svg id="Layer_2" data-name="Layer 2" xmlns="http://www.w3.org/2000/svg" viewBox="0 0 1366 768">
  <title>gore1_day</title>
  <rect width="1366" height="768" fill="none"/>
  <path id="gore1" d="M1818.42,479.72c3.11-.36,6.48-.64,9.14,1,3.39,2.1,4.37,6.45,6,10.07,3.37,7.39,10.23,12.47,16.82,17.23,39,28.16,80,57.17,127.55,64.37,34.62,5.24,70-1.62,103.5-11.74,57.37-17.32,111.4-44.09,164.45-72,21.65-11.37,44.09-23.21,68.51-24.51,34.28-1.83,65.88,17.23,99.4,24.65,41.13,9.11,84.07.42,124.78-9.93,22.7-5.78,45.17-12.4,67.53-19.42,27.52-8.64,66.83-16.22,97.39-.35a8.45,8.45,0,0,1,4.27,5.31c10.05,37.3,8.64,95.22-15.83,130-14.19,20.15-85.34,9.15-104.83,24.25-67.32,52.14-159.92,52-245.07,51.55-168.93-1-340.23,5.38-504.25-35.05-66.53-16.4-106.17-24.07-184-35.19-13-1.86-9.09-4-18.54-13-12.47-11.87-3.63-42.91,5.57-46.35,31.22-11.64,36-33.33,68.38-41.31A863,863,0,0,1,1818.42,479.72Z" transform="translate(-1386)" fill="#677c89"/>
</svg>
