<svg id="Layer_2" data-name="Layer 2" xmlns="http://www.w3.org/2000/svg" xmlns:xlink="http://www.w3.org/1999/xlink" viewBox="0 0 1366 768">
  <defs>
    <linearGradient id="linear-gradient" x1="1777.2" y1="632.08" x2="2599.45" y2="632.08" gradientUnits="userSpaceOnUse">
      <stop offset="0.04" stop-color="#6dbbe4"/>
      <stop offset="0.06" stop-color="#59b3e1"/>
      <stop offset="0.08" stop-color="#43abdd"/>
      <stop offset="0.11" stop-color="#32a4da"/>
      <stop offset="0.14" stop-color="#279fd8"/>
      <stop offset="0.19" stop-color="#209dd7"/>
      <stop offset="0.33" stop-color="#1e9cd7"/>
      <stop offset="0.35" stop-color="#3297cd"/>
      <stop offset="0.39" stop-color="#6489b5"/>
      <stop offset="0.43" stop-color="#8b7ea1"/>
      <stop offset="0.46" stop-color="#a87693"/>
      <stop offset="0.49" stop-color="#b9728b"/>
      <stop offset="0.52" stop-color="#bf7088"/>
      <stop offset="0.58" stop-color="#9f6c91"/>
      <stop offset="0.71" stop-color="#6966a0"/>
      <stop offset="0.8" stop-color="#4762a9"/>
      <stop offset="0.85" stop-color="#3a60ad"/>
      <stop offset="0.99" stop-color="#2970ab"/>
    </linearGradient>
  </defs>
  <title>gore2_day</title>
  <rect width="1366" height="768" fill="none"/>
  <g id="gore2">
    <path id="gore2b" d="M1807.94,549.75c9.39.75,19.64,2.93,29.06,2.66,28.66-.84,74.53-29.56,102.27-36.81,82.6-21.58,145.81,76.5,226.51,48.68,13.61-4.69,26.23-12.6,40.45-14.81,14.59-2.26,29.32,1.69,43.75,4.77a382,382,0,0,0,155.82.68c14.73-3,34-13.68,48.86-11.51,9.37,1.37,33.53,10.39,42.64,13,64.58,18.33,116.77-20.06,179.9,2.77,6.25,2.27,12.52,5.29,16.65,10.49,12.17,15.28-.23,37.32-12.5,52.51-21.54,26.66-43.67,53.3-70.88,74.14s-60.27,35.67-94.54,35.34c-39.5-.38-75.93-20.38-114.57-28.53-72.24-15.25-145.77,11.47-218.74,22.65-145.1,22.24-291.75-17.35-433.2-56.58-18.54-5.14-37.39-10.41-53.59-20.78-13-8.31-25.85-17.82-36.5-29-18.43-19.32-40.78-27.81-31.51-59.33,17.06-13.34,159.92-18.17,180.12-10.34" transform="translate(-1386)" fill="#54738c"/>
    <path id="jezero" d="M1869.85,578c-17.79,1.2-20.36.66-38.1,2.45-2,.2-24.48,7.92-26,9.27-8.75,8-16.25,11.9-25.59,19.44-18.9,14.52,56.68,39.42,84.92,42.33,31.9,3.29,66.1,20.45,98.25,20.39,28,0,71.66,7.81,98.26,11.12,33.45,4.17,96,3,129.77,3.12,32.9.08,71.17-31.76,103.82-27.81,46.3,5.6,63-4.37,109.54-.43,42.54,3.6,83.27,28.24,135.18,26.38,12.34-.44,85.1-48.47,50-56.87-29-7-81.18-6.34-109.38-3.71-21.13,2-45.24.73-65.86-2.69-21-3.48-44.67-9.92-65.76-12.74-55.62-7.41-99.07,13.77-144.61,7.42-51.28-7.15-98.85,9.72-150.16,3.71-66.34-7.78-76.72-6.54-139-29.66C1896.63,586.05,1911.47,576.78,1869.85,578Z" transform="translate(-1386)" fill="url(#linear-gradient)"/>
  </g>
</svg>
