<svg id="noc" xmlns="http://www.w3.org/2000/svg" xmlns:xlink="http://www.w3.org/1999/xlink" viewBox="0 0 1369 768">
  <defs>
    <linearGradient id="linear-gradient" x1="396.55" y1="631.59" x2="1218.8" y2="631.59" gradientUnits="userSpaceOnUse">
      <stop offset="0.05" stop-color="#6dbbe4"/>
      <stop offset="0.07" stop-color="#59b3e1"/>
      <stop offset="0.09" stop-color="#43abdd"/>
      <stop offset="0.12" stop-color="#32a4da"/>
      <stop offset="0.15" stop-color="#279fd8"/>
      <stop offset="0.2" stop-color="#209dd7"/>
      <stop offset="0.33" stop-color="#1e9cd7"/>
      <stop offset="0.34" stop-color="#34a6da"/>
      <stop offset="0.38" stop-color="#71c1e4"/>
      <stop offset="0.41" stop-color="#a4d7ec"/>
      <stop offset="0.44" stop-color="#cbe8f2"/>
      <stop offset="0.47" stop-color="#e8f5f6"/>
      <stop offset="0.5" stop-color="#f9fcf9"/>
      <stop offset="0.52" stop-color="#fffffa"/>
      <stop offset="0.59" stop-color="#c1d4df"/>
      <stop offset="0.69" stop-color="#75a0bf"/>
      <stop offset="0.78" stop-color="#3e7aa8"/>
      <stop offset="0.84" stop-color="#1c6399"/>
      <stop offset="0.87" stop-color="#0f5a94"/>
      <stop offset="0.99" stop-color="#005b97"/>
    </linearGradient>
  </defs>
  <title>gore2</title>
  <rect width="1369" height="768" fill="none"/>
  <g id="gore2">
    <path id="gore2b" d="M427.28,549.25c9.4.76,19.65,2.94,29.07,2.66,28.66-.83,74.53-29.56,102.27-36.81,82.6-21.57,145.81,76.5,226.51,48.68,13.61-4.69,26.23-12.59,40.45-14.8,14.59-2.27,29.32,1.68,43.75,4.77a382.21,382.21,0,0,0,155.82.68c14.73-3,34-13.69,48.86-11.52,9.37,1.37,33.53,10.39,42.64,13,64.58,18.33,116.77-20.06,179.9,2.78,6.25,2.26,12.51,5.29,16.65,10.49,12.16,15.28-.23,37.31-12.5,52.51-21.54,26.66-43.67,53.3-70.88,74.14s-60.27,35.66-94.55,35.33c-39.49-.38-75.92-20.37-114.57-28.53C948.47,687.37,874.94,714.08,802,725.27c-145.1,22.23-291.75-17.35-433.2-56.58-18.54-5.14-37.39-10.42-53.59-20.78-13-8.32-25.85-17.83-36.5-29-18.43-19.31-40.78-27.81-31.51-59.32,17.06-13.34,159.92-18.17,180.11-10.35" fill="#132946"/>
    <path id="jezero" d="M489.2,577.55c-17.79,1.2-20.36.66-38.1,2.44-2,.2-24.48,7.92-26,9.27-8.75,8-16.25,11.91-25.59,19.45-18.9,14.51,56.68,39.41,84.92,42.32,31.9,3.29,66.09,20.45,98.25,20.4,27.95-.06,71.66,7.81,98.26,11.12,33.45,4.16,96,3,129.77,3.11,32.9.08,71.16-31.75,103.82-27.81,46.3,5.6,63-4.37,109.54-.43,42.54,3.61,83.27,28.24,135.18,26.39,12.34-.44,85.1-48.47,50-56.88-29-6.95-81.18-6.34-109.38-3.71-21.13,2-45.24.73-65.86-2.68-21-3.49-44.67-9.93-65.77-12.74-55.61-7.42-99.06,13.76-144.6,7.41-51.28-7.14-98.85,9.73-150.17,3.71-66.33-7.77-76.71-6.53-139-29.66C516,585.55,530.81,576.28,489.2,577.55Z" fill="url(#linear-gradient)"/>
  </g>
</svg>
