<svg id="noc" xmlns="http://www.w3.org/2000/svg" viewBox="0 0 1369 768">
  <title>luna</title>
  <rect width="1369" height="768" fill="none"/>
  <g id="luna">
    <path d="M1041.56,233.31a58.4,58.4,0,1,0,58.4,58.4A58.4,58.4,0,0,0,1041.56,233.31Zm5,45.36a6.91,6.91,0,1,1-6.91-6.91A6.91,6.91,0,0,1,1046.55,278.67Zm-33.76-23.79a4.61,4.61,0,1,1-4.61,4.61A4.6,4.6,0,0,1,1012.79,254.88Zm-12.28,38.36a9.21,9.21,0,1,1,9.21-9.2A9.2,9.2,0,0,1,1000.51,293.24Zm13,21.49a.77.77,0,1,1,.77-.77A.77.77,0,0,1,1013.55,314.73Zm3.84,15.34a1.54,1.54,0,1,1,1.54-1.53A1.53,1.53,0,0,1,1017.39,330.07Zm.77-39.89a2.31,2.31,0,1,1,2.3-2.31A2.3,2.3,0,0,1,1018.16,290.18Zm10,18.41a1.54,1.54,0,1,1,1.54-1.54A1.53,1.53,0,0,1,1028.13,308.59Zm1.54-59.84a4.6,4.6,0,1,1,4.6,4.6A4.6,4.6,0,0,1,1029.67,248.75Zm10,85.92a8.44,8.44,0,1,1,8.44-8.44A8.44,8.44,0,0,1,1039.64,334.67Zm4.6-24.55a5.37,5.37,0,1,1,5.37-5.37A5.37,5.37,0,0,1,1044.24,310.12Zm8.44-43a3.07,3.07,0,1,1,3.07-3.07A3.07,3.07,0,0,1,1052.68,267.16Zm6.91,44.5a2.31,2.31,0,1,1,2.3-2.3A2.3,2.3,0,0,1,1059.59,311.66Zm3.83-34.53a10,10,0,1,1,10,10A10,10,0,0,1,1063.42,277.13ZM1078,325.47a3.84,3.84,0,1,1,3.84-3.84A3.84,3.84,0,0,1,1078,325.47Zm10-18.42a6.14,6.14,0,1,1,6.14-6.13A6.12,6.12,0,0,1,1088,307.05Z" fill="#fffffa"/>
    <circle cx="1012.79" cy="259.49" r="4.6" fill="#f9f8c5"/>
    <circle cx="1034.27" cy="248.75" r="4.6" fill="#f9f8c5"/>
    <circle cx="1018.16" cy="287.87" r="2.3" fill="#f9f8c5"/>
    <circle cx="1059.59" cy="309.36" r="2.3" fill="#f9f8c5"/>
    <circle cx="1000.51" cy="284.04" r="9.21" fill="#f9f8c5"/>
    <circle cx="1028.13" cy="307.05" r="1.53" fill="#f9f8c5"/>
    <circle cx="1017.39" cy="328.54" r="1.53" fill="#f9f8c5"/>
    <circle cx="1013.55" cy="313.96" r="0.77" fill="#f9f8c5"/>
    <circle cx="1039.64" cy="278.67" r="6.9" fill="#f9f8c5"/>
    <circle cx="1073.4" cy="277.13" r="9.97" fill="#f9f8c5"/>
    <circle cx="1087.97" cy="300.92" r="6.14" fill="#f9f8c5"/>
    <circle cx="1078" cy="321.63" r="3.84" fill="#f9f8c5"/>
    <circle cx="1052.68" cy="264.09" r="3.07" fill="#f9f8c5"/>
    <circle cx="1044.24" cy="304.75" r="5.37" fill="#f9f8c5"/>
    <circle cx="1039.64" cy="326.23" r="8.44" fill="#f9f8c5"/>
  </g>
</svg>
