<svg id="Layer_2" data-name="Layer 2" xmlns="http://www.w3.org/2000/svg" viewBox="0 0 1366 768">
  <title>oblak4</title>
  <rect width="1366" height="768" fill="none"/>
  <g id="oblak4">
    <path d="M2000.56,342.66c0-3.33-3.27-6.06-7.27-6.06h-8.23c-4,0-7.27,2.73-7.27,6.06s3.27,6.06,7.27,6.06h8.23c4,0,7.27-2.73,7.27-6.06m143.17,23a6.06,6.06,0,1,0-6.06,6.06,6.07,6.07,0,0,0,6.06-6.06m38-47.24c0-3.33-3.27-6.05-7.26-6.05h-8.24c-4,0-7.27,2.72-7.27,6.05s3.27,6.06,7.27,6.06h8.24c4,0,7.26-2.72,7.26-6.06" transform="translate(-1386)" fill="#d9e5ed" fill-rule="evenodd"/>
    <path d="M2194.84,276h-58.13c-4,0-7.27,2.73-7.27,6.06s3.27,6,7.27,6h3.14c4,0,7.27,2.73,7.27,6.06s-3.27,6.06-7.27,6.06h-39.48c-4,0-7.27,2.72-7.27,6.05s3.27,6.06,7.27,6.06h47.48c4,0,7.27,2.72,7.27,6.05s-3.27,6.06-7.27,6.06h-61.53c-4,0-7.27,2.73-7.27,6.06s3.27,6.05,7.27,6.05h50.87c4,0,7.27,2.73,7.27,6.06s-3.27,6.06-7.27,6.06H2013.64c-4,0-7.26-2.73-7.26-6.06s3.27-6.06,7.26-6.06h46.27c4,0,7.27-2.72,7.27-6.05s-3.27-6.06-7.27-6.06h-17.44c-4,0-7.27-2.72-7.27-6.06s3.27-6.05,7.27-6.05h-.24c4,0,7.27-2.73,7.27-6.06s-3.27-6.05-7.27-6.05h-55c-4,0-7.27-2.73-7.27-6.06s3.27-6.06,7.27-6.06h95.2c4,0,7.27-2.72,7.27-6s-3.27-6.06-7.27-6.06H2071.3c-4,0-7.27-2.72-7.27-6.06s3.27-6.05,7.27-6.05h123.54c4,0,7.27,2.72,7.27,6.05s-3.27,6.06-7.27,6.06m-72.19,89.63c0-3.33-3.27-6.05-7.26-6.05h-72.92c-4,0-7.27,2.72-7.27,6.05s3.27,6.06,7.27,6.06h72.92c4,0,7.26-2.73,7.26-6.06" transform="translate(-1386)" fill="#d9e5ed" fill-rule="evenodd"/>
  </g>
</svg>
