<svg id="Layer_2" data-name="Layer 2" xmlns="http://www.w3.org/2000/svg" viewBox="0 0 1366 768">
  <title>oblak5</title>
  <rect width="1366" height="768" fill="none"/>
  <g id="oblak5">
    <path d="M1645.24,213.6a6.12,6.12,0,1,0,6.12,6.12,6.14,6.14,0,0,0-6.12-6.12" transform="translate(-1386)" fill="#d1e2f2" fill-rule="evenodd"/>
    <path d="M1814.4,287h-58.09c-4,0-7.34-2.76-7.34-6.12s3.31-6.12,7.34-6.12h1.2c4,0,7.34-2.75,7.34-6.12s-3.3-6.11-7.34-6.11h-28.73c-4,0-7.34-2.76-7.34-6.12s3.31-6.12,7.34-6.12h52.89c4,0,7.35-2.75,7.35-6.12s-3.31-6.12-7.35-6.12h-59.49c-4,0-7.35-2.75-7.35-6.11s3.31-6.12,7.35-6.12H1752c4,0,7.34-2.75,7.34-6.12s-3.3-6.12-7.34-6.12h.34c-4,0-7.34-2.75-7.34-6.11s3.3-6.12,7.34-6.12h38.82c4,0,7.34-2.76,7.34-6.12s-3.31-6.12-7.34-6.12h-87.8c-4,0-7.34,2.75-7.34,6.12s3.31,6.12,7.34,6.12h22.3c4,0,7.34,2.75,7.34,6.12s-3.3,6.11-7.34,6.11h-58.39c-4,0-7.34,2.76-7.34,6.12s3.3,6.12,7.34,6.12h.09c4,0,7.34,2.75,7.34,6.12s-3.3,6.11-7.34,6.11h-43.24c-4,0-7.34,2.76-7.34,6.12s3.3,6.12,7.34,6.12h78c4,0,7.34,2.75,7.34,6.12s-3.3,6.12-7.34,6.12h-1.8c-4,0-7.35,2.75-7.35,6.11s3.31,6.12,7.35,6.12h29.33c4,0,7.34,2.75,7.34,6.12s-3.3,6.12-7.34,6.12h-57.71c-4,0-7.34,2.75-7.34,6.12s3.31,6.11,7.34,6.11H1814.4c4,0,7.35-2.75,7.35-6.11s-3.31-6.12-7.35-6.12m25.09,0h-5.81c-4,0-7.35,2.75-7.35,6.12s3.31,6.11,7.35,6.11h5.81c4,0,7.34-2.75,7.34-6.11s-3.3-6.12-7.34-6.12" transform="translate(-1386)" fill="#b1bec9" fill-rule="evenodd"/>
    <path d="M1771,268.66c0,3.37,3.3,6.12,7.34,6.12h25.39c4,0,7.34-2.75,7.34-6.12s-3.3-6.11-7.34-6.11h-25.39c-4,0-7.34,2.75-7.34,6.11" transform="translate(-1386)" fill="#d1e2f2" fill-rule="evenodd"/>
  </g>
</svg>
