<svg id="Layer_2" data-name="Layer 2" xmlns="http://www.w3.org/2000/svg" viewBox="0 0 1366 768">
  <title>oblak2</title>
  <rect width="1366" height="768" fill="none"/>
  <g id="oblak2">
    <path d="M2500.93,310.76c0,2.55-2.5,4.64-5.57,4.64h-56c-3.06,0-5.57-2.09-5.57-4.64s2.51-4.65,5.57-4.65h56c3.07,0,5.57,2.09,5.57,4.65m-93.68,17.66c0,2.55-2.51,4.64-5.58,4.64h-6.32c-3.07,0-5.58-2.09-5.58-4.64s2.51-4.65,5.58-4.65h6.32c3.07,0,5.58,2.09,5.58,4.65m109.86-17.66a4.65,4.65,0,1,1-4.65-4.65,4.66,4.66,0,0,1,4.65,4.65M2546.29,347c0,2.56-2.51,4.65-5.57,4.65h-6.33c-3.06,0-5.57-2.09-5.57-4.65s2.51-4.64,5.57-4.64h6.33c3.06,0,5.57,2.09,5.57,4.64" transform="translate(-1386)" fill="#76afe2" fill-rule="evenodd"/>
    <path d="M2556.33,379.54h-44.61c-3.07,0-5.58-2.1-5.58-4.65s2.51-4.65,5.58-4.65h2.41c3.07,0,5.58-2.09,5.58-4.65s-2.51-4.64-5.58-4.64h-30.3c-3.06,0-5.57-2.09-5.57-4.65s2.51-4.65,5.57-4.65h36.44c3.06,0,5.57-2.09,5.57-4.65s-2.51-4.64-5.57-4.64h-47.22c-3.07,0-5.58-2.09-5.58-4.65s2.51-4.65,5.58-4.65h39c3.07,0,5.57-2.09,5.57-4.64s-2.5-4.65-5.57-4.65h-94.81c-3.06,0-5.57,2.09-5.57,4.65s2.51,4.64,5.57,4.64h35.51c3.07,0,5.58,2.09,5.58,4.65s-2.51,4.65-5.58,4.65H2439.4c-3.06,0-5.57,2.09-5.57,4.64s2.51,4.65,5.57,4.65h-.18c3.07,0,5.58,2.09,5.58,4.65s-2.51,4.65-5.58,4.65H2397c-3.07,0-5.58,2.09-5.58,4.64s2.51,4.65,5.58,4.65h73.06c3.06,0,5.57,2.09,5.57,4.65s-2.51,4.65-5.57,4.65h-8.55c-3.07,0-5.58,2.09-5.58,4.64s2.51,4.65,5.58,4.65h94.8c3.07,0,5.58-2.09,5.58-4.65s-2.51-4.64-5.58-4.64" transform="translate(-1386)" fill="#76afe2" fill-rule="evenodd"/>
  </g>
</svg>
