<svg id="Layer_2" data-name="Layer 2" xmlns="http://www.w3.org/2000/svg" viewBox="0 0 1366 768">
  <title>oblak7</title>
  <rect width="1366" height="768" fill="none"/>
  <g id="oblak7">
    <path d="M1930,327.18c0,3.11-3.06,5.66-6.79,5.66h-68.1c-3.73,0-6.78-2.55-6.78-5.66s3-5.65,6.78-5.65h68.1c3.73,0,6.79,2.54,6.79,5.65m-114,21.49c0,3.12-3.06,5.66-6.79,5.66h-7.69c-3.74,0-6.79-2.54-6.79-5.66s3-5.65,6.79-5.65h7.69c3.73,0,6.79,2.54,6.79,5.65m133.7-21.49a5.66,5.66,0,1,1-5.66-5.65,5.68,5.68,0,0,1,5.66,5.65m35.52,44.12c0,3.11-3.06,5.65-6.79,5.65h-7.69c-3.73,0-6.79-2.54-6.79-5.65s3.06-5.66,6.79-5.66h7.69c3.73,0,6.79,2.55,6.79,5.66" transform="translate(-1386)" fill="#76afe2" fill-rule="evenodd"/>
    <path d="M1997.37,410.89h-54.29c-3.73,0-6.79-2.55-6.79-5.66s3.06-5.65,6.79-5.65H1946c3.73,0,6.79-2.55,6.79-5.66s-3.06-5.65-6.79-5.65h-36.88c-3.73,0-6.78-2.55-6.78-5.66s3.05-5.66,6.78-5.66h44.34c3.74,0,6.79-2.54,6.79-5.65s-3-5.66-6.79-5.66H1896c-3.73,0-6.79-2.54-6.79-5.65s3.06-5.66,6.79-5.66h47.51c3.73,0,6.79-2.54,6.79-5.66s-3.06-5.65-6.79-5.65H1828.15c-3.73,0-6.78,2.54-6.78,5.65s3.05,5.66,6.78,5.66h43.21c3.74,0,6.79,2.55,6.79,5.66s-3.05,5.65-6.79,5.65h-16.29c-3.73,0-6.78,2.55-6.78,5.66s3,5.65,6.78,5.65h-.22c3.73,0,6.78,2.55,6.78,5.66s-3.05,5.66-6.78,5.66h-51.36c-3.73,0-6.78,2.54-6.78,5.65s3,5.66,6.78,5.66h88.91c3.73,0,6.79,2.54,6.79,5.65s-3.06,5.66-6.79,5.66H1882c-3.74,0-6.79,2.54-6.79,5.65s3,5.66,6.79,5.66h115.37c3.74,0,6.79-2.54,6.79-5.66s-3.05-5.65-6.79-5.65" transform="translate(-1386)" fill="#76afe2" fill-rule="evenodd"/>
  </g>
</svg>
