<svg id="Layer_2" data-name="Layer 2" xmlns="http://www.w3.org/2000/svg" viewBox="0 0 1366 768">
  <title>oblak1</title>
  <rect width="1366" height="768" fill="none"/>
  <g id="oblak1">
    <path d="M2093.6,233.17h-51.18c-3.52,0-6.4-2.4-6.4-5.33s2.88-5.34,6.4-5.34h2.77c3.52,0,6.4-2.39,6.4-5.33s-2.88-5.33-6.4-5.33h-34.76c-3.52,0-6.39-2.4-6.39-5.33s2.87-5.33,6.39-5.33h41.8c3.52,0,6.4-2.4,6.4-5.33s-2.88-5.33-6.4-5.33h-54.17c-3.51,0-6.39-2.4-6.39-5.34s2.88-5.33,6.39-5.33h44.79c3.52,0,6.4-2.4,6.4-5.33s-2.88-5.33-6.4-5.33H1934.09c-3.52,0-6.4,2.4-6.4,5.33s2.88,5.33,6.4,5.33h40.73c3.52,0,6.4,2.4,6.4,5.33s-2.88,5.34-6.4,5.34h-15.35c-3.52,0-6.4,2.39-6.4,5.33s2.88,5.33,6.4,5.33h-.22c3.52,0,6.4,2.4,6.4,5.33s-2.88,5.33-6.4,5.33h-48.41c-3.52,0-6.4,2.4-6.4,5.33s2.88,5.33,6.4,5.33h83.81c3.52,0,6.4,2.4,6.4,5.34s-2.88,5.33-6.4,5.33h-9.81c-3.52,0-6.4,2.4-6.4,5.33s2.88,5.33,6.4,5.33H2093.6c3.52,0,6.4-2.4,6.4-5.33s-2.88-5.33-6.4-5.33" transform="translate(-1386)" fill="#76afe2" fill-rule="evenodd"/>
  </g>
</svg>
