<svg id="Layer_2" data-name="Layer 2" xmlns="http://www.w3.org/2000/svg" viewBox="0 0 1366 768">
  <title>triglav_day</title>
  <rect width="1366" height="768" fill="none"/>
  <g id="triglav">
    <path d="M2692.88,462.27c-7.76-16.22-51.18-30.22-64.63-38.84-5.92-3.79-12.59-3.3-19-5.9-9.44-3.81-5.73-10.41-15.2-15.37-8.82-4.62-48.73-8.52-51.08-18.82-23-1.39-38.57,13.2-60.35,15.19-5.44,6.72-23.2,12.9-32.35,17.09-12.25,5.62-30.21,3.46-43.47,2.63-11.31-.71-13.09-6.43-20.35-10.4s-23.59,3-29-2.6c-3.14-3.22-1.83-11.36-6-15.91-8.26-9-12.62-18.68-25.44-24.16-19-8.14-35.09-16.2-52.46-27.81-12.88-8.61-27.22-22.77-41.11-25.85-6.6-1.47-12.76-4.36-18.69-5.92-5-1.32-8.65-1.51-13.32-3.74-3.69-1.77-4.59-3.75-7.57-5.75-14.92-10-29.06-7-46.49,1.86-12.94,6.57-28.73,14.58-37.48,26.54-2,2.73-1.69,5.24-3.75,7.73-4.38,5.33-11.95,8.84-17.32,13.14-4.87,3.91-9.73,8.33-14.2,12.19-9.53,8.23-19.35,16.06-28.44,24.66-6.7,6.34-14.53,9.9-24,11.93s-11.9-3.31-20.61-5.07c-14.64-2.95-17.42,13.63-29.2,15.88-8.38,1.6-16.48-3.4-25.58.1-4.1,1.58-7.94,3.51-12.15,5.54-17.36,8.35-28.33,6.37-38,22.67-3.49,5.87-8.16,15.14-16.09,13-7.19-1.94-8.17-12.51-18.38-11.48-6.62.66-12.11,8.27-19.33,7.2-3.21-.48-10.59-6.83-13.93-8.58-7.12-3.73-9.62-6.4-17.43-3-8.71,3.83-18.46,14.85-25.21,20.31-6.36,5.15-12.13,11.56-19.09,16.09-7.69,5-17,6.73-23.24,13.91-4.48,5.19-7,11.58-12.21,16.26-5.78,5.22-13.09,7.68-19.74,11.84-5.74,3.59-34.92,21.54-36.5,20.44q-17.68,11-34.45,23.36c-7.56,4.17-15,22.7-11.26,30.12,12,18.5,22.92,23.69,42.64,33.37,16,7.83,30.86,5.74,48.2,11.12,15.42,4.8,32.36,27.65,48.2,29.67,26.23,3.33,63.41,3.91,89,9.27,31.14,6.52,69.77,8.59,102,13,84.31,11.47,180.73-15.7,265.34-5.29,27.16,3.35,54.52,4.58,81.72,7.5,24.63,2.65,47.68,5.71,72.6,3.72,31.13-2.48,62.36-5.25,93.52-7.3,22.06-1.45,43.86-1.19,65-8.46,40.42-14,70.43-30.26,93.33-67.35,11.18-18.11,40.35-39.46,49.7-58.15C2713.28,477.1,2705.36,488.3,2692.88,462.27Zm-804.32,41.85c-1.73.67-3.73,3.11-2,3.7C1866.4,501,1843,473.11,1826,459.9c3.84,2,7.73,2.67,12,3l20.53,1.48a39.6,39.6,0,0,0,40,14.79C1902.87,488.25,1898,500.51,1888.56,504.12Zm281-26.72a12.29,12.29,0,0,1-3.44,1.6c-8.22,3.33-10.3,14.29-17.29,19.76-3.43,2.69-7.79,3.84-11.75,5.68-6.48,3-11.9,7.83-17.92,11.67s-13.21,6.77-20.19,5.26c-5.73-1.24-10.53-5.31-16.25-6.58-3.43-.75-7-.46-10.46-1.14s-7-2.74-7.84-6.15c-.66-2.76.7-5.7,2.76-7.65a23.42,23.42,0,0,1,7.36-4.18,337.11,337.11,0,0,1,48.7-15.82c5.4-1.31,11.22-2.73,14.8-7,1.67-2,2.73-4.48,4.69-6.17a16.81,16.81,0,0,1,5.66-2.78c3.65-1.24,21.58-10,24-5.49,1,1.8-1.72,7.71-1.64,10.31C2170.8,471.64,2172.17,475.19,2169.51,477.4Zm135-52.81c-5.62,1.37-11.38-1.46-16.1-4.79-5.87-4.14-11.29-9.31-18.2-11.25-3.78-1.07-7.77-1.09-11.64-1.77-8.87-1.54-17.82-17.09-25.44-21.88-.11,2.26-14.73,20-14.83,22.25-8.77-14.28-1.49-33.75-10.28-48-13.83-22.44-17.21-24.62-2.7-28,28.5-6.65,40.55,40,59,49.94a39,39,0,0,0,11,3.49c7.62,1.5,15.45,2.45,22.63,5.43s13.83,8.45,15.94,15.93S2312.05,422.74,2304.5,424.59ZM2497,442.86c-5.73,4.4-11.6,8.88-18.47,11.11s-15.05,1.8-20.52-2.91c-6.49,7.26-14.91,15.22-24.46,13.3,5.56-16.95,21.47-28.39,37.72-35.76,8.44-3.83,34.36-19,43.31-14.24C2531.24,423.24,2504.24,437.33,2497,442.86Z" transform="translate(-1386)" fill="#566572"/>
    <path d="M2298,390c-7.18-3-15-3.93-22.63-5.43a39,39,0,0,1-11-3.49c-18.46-9.94-30.51-56.59-59-49.94-14.51,3.38-11.13,5.56,2.7,28,8.79,14.26,1.51,33.73,10.28,48,.1-2.27,14.72-20,14.83-22.25,7.62,4.79,16.57,20.34,25.44,21.88,3.87.68,7.86.7,11.64,1.77,6.91,1.94,12.33,7.11,18.2,11.25,4.72,3.33,10.48,6.16,16.1,4.79,7.55-1.85,11.51-11.18,9.4-18.66S2305.14,393,2298,390Z" transform="translate(-1386)" fill="#a8acaf"/>
    <path d="M2514.62,414.36c-8.95-4.77-34.87,10.41-43.31,14.24-16.25,7.37-32.16,18.81-37.72,35.76,9.55,1.92,18-6,24.46-13.3,5.47,4.71,13.65,5.14,20.52,2.91s12.74-6.71,18.47-11.11C2504.24,437.33,2531.24,423.24,2514.62,414.36Z" transform="translate(-1386)" fill="#a8acaf"/>
    <path d="M1858.62,464.36l-20.53-1.48c-4.32-.31-8.21-.94-12-3,17,13.21,40.36,41.07,60.53,47.92-1.74-.59.26-3,2-3.7,9.39-3.61,14.31-15.87,10-25A39.6,39.6,0,0,1,1858.62,464.36Z" transform="translate(-1386)" fill="#a8acaf"/>
    <path d="M2172.36,458.44c-2.44-4.49-20.37,4.25-24,5.49a16.81,16.81,0,0,0-5.66,2.78c-2,1.69-3,4.18-4.69,6.17-3.58,4.24-9.4,5.66-14.8,7a337.11,337.11,0,0,0-48.7,15.82,23.42,23.42,0,0,0-7.36,4.18c-2.06,1.95-3.42,4.89-2.76,7.65.83,3.41,4.4,5.47,7.84,6.15s7,.39,10.46,1.14c5.72,1.27,10.52,5.34,16.25,6.58,7,1.51,14.18-1.41,20.19-5.26s11.44-8.68,17.92-11.67c4-1.84,8.32-3,11.75-5.68,7-5.47,9.07-16.43,17.29-19.76a12.29,12.29,0,0,0,3.44-1.6c2.66-2.21,1.29-5.76,1.21-8.65C2170.64,466.15,2173.33,460.24,2172.36,458.44Z" transform="translate(-1386)" fill="#a8acaf"/>
  </g>
</svg>
