<svg id="Layer_3" data-name="Layer 3" xmlns="http://www.w3.org/2000/svg" xmlns:xlink="http://www.w3.org/1999/xlink" viewBox="0 0 757 470">
  <defs>
    <linearGradient id="linear-gradient" x1="122.59" y1="371" x2="658.46" y2="371" gradientUnits="userSpaceOnUse">
      <stop offset="0.05" stop-color="#6dbbe4"/>
      <stop offset="0.07" stop-color="#59b3e1"/>
      <stop offset="0.09" stop-color="#43abdd"/>
      <stop offset="0.12" stop-color="#32a4da"/>
      <stop offset="0.15" stop-color="#279fd8"/>
      <stop offset="0.2" stop-color="#209dd7"/>
      <stop offset="0.33" stop-color="#1e9cd7"/>
      <stop offset="0.34" stop-color="#34a6da"/>
      <stop offset="0.38" stop-color="#71c1e4"/>
      <stop offset="0.41" stop-color="#a4d7ec"/>
      <stop offset="0.44" stop-color="#cbe8f2"/>
      <stop offset="0.47" stop-color="#e8f5f6"/>
      <stop offset="0.5" stop-color="#f9fcf9"/>
      <stop offset="0.52" stop-color="#fffffa"/>
      <stop offset="0.59" stop-color="#c1d4df"/>
      <stop offset="0.69" stop-color="#75a0bf"/>
      <stop offset="0.78" stop-color="#3e7aa8"/>
      <stop offset="0.84" stop-color="#1c6399"/>
      <stop offset="0.87" stop-color="#0f5a94"/>
      <stop offset="0.99" stop-color="#005b97"/>
    </linearGradient>
  </defs>
  <title>triglav-svg</title>
  <g id="triglav">
    <path d="M719.35,260.33C714.29,249.76,686,240.64,677.23,235c-3.86-2.47-8.21-2.15-12.39-3.84-6.15-2.49-3.73-6.79-9.91-10-5.74-3-31.76-5.55-33.28-12.26-15-.91-25.14,8.59-39.34,9.89-3.54,4.38-15.11,8.41-21.08,11.14-8,3.66-19.69,2.25-28.33,1.71-7.37-.46-8.53-4.19-13.26-6.77s-15.38,1.93-18.91-1.7c-2.05-2.1-1.19-7.4-3.91-10.36-5.38-5.88-8.22-12.18-16.58-15.75a200,200,0,0,1-34.19-18.13c-8.39-5.61-17.73-14.83-26.79-16.85-4.3-1-8.31-2.84-12.17-3.85-3.28-.86-5.64-1-8.69-2.44-2.4-1.15-3-2.44-4.93-3.75-9.73-6.54-18.94-4.55-30.3,1.22-8.43,4.28-18.73,9.5-24.42,17.29-1.31,1.78-1.11,3.42-2.45,5-2.86,3.47-7.79,5.76-11.28,8.57-3.18,2.54-6.35,5.42-9.26,7.94-6.21,5.36-12.61,10.47-18.54,16.07-4.36,4.13-9.46,6.45-15.63,7.77s-7.76-2.16-13.43-3.3c-9.55-1.92-11.35,8.89-19,10.35-5.47,1-10.75-2.21-16.67.07-2.67,1-5.18,2.29-7.92,3.61-11.31,5.44-18.46,4.14-24.78,14.77-2.28,3.83-5.32,9.87-10.49,8.47-4.68-1.27-5.32-8.16-12-7.49-4.31.44-7.89,5.39-12.59,4.69-2.09-.31-6.9-4.45-9.08-5.59-4.64-2.43-6.27-4.17-11.36-1.93-5.68,2.5-12,9.68-16.43,13.24-4.15,3.35-7.9,7.53-12.44,10.48-5,3.26-11.1,4.39-15.14,9.07-2.93,3.38-4.59,7.55-8,10.59-3.77,3.4-8.54,5-12.87,7.72-3.74,2.34-22.76,14-23.79,13.32q-11.52,7.17-22.45,15.23C28.26,322,23.43,334,25.84,338.86c7.81,12.06,14.94,15.44,27.79,21.75,10.4,5.11,20.12,3.74,31.41,7.25,10.06,3.13,21.09,18,31.42,19.33,17.09,2.17,41.32,2.55,58,6,20.3,4.26,45.47,5.61,66.45,8.46,55,7.47,117.79-10.23,172.93-3.45,17.7,2.18,35.53,3,53.25,4.89,16.06,1.73,31.08,3.72,47.32,2.43,20.29-1.62,40.64-3.43,61-4.76,14.37-.95,28.58-.78,42.33-5.52,26.34-9.09,45.9-19.72,60.83-43.89,7.29-11.8,26.29-25.71,32.38-37.9C732.64,270,727.48,277.3,719.35,260.33ZM195.16,287.61c-1.12.43-2.43,2-1.29,2.41-13.15-4.46-28.39-22.62-39.45-31.23a18.83,18.83,0,0,0,7.85,1.94l13.38,1a25.81,25.81,0,0,0,26,9.64C204.49,277.27,201.29,285.25,195.16,287.61Zm183.1-17.41a8,8,0,0,1-2.23,1c-5.37,2.17-6.72,9.32-11.27,12.89-2.24,1.75-5.08,2.5-7.66,3.69-4.23,2-7.76,5.11-11.68,7.61s-8.61,4.42-13.16,3.43c-3.73-.81-6.86-3.46-10.59-4.29-2.24-.49-4.57-.3-6.82-.74s-4.57-1.79-5.1-4a5.38,5.38,0,0,1,1.79-5,15.41,15.41,0,0,1,4.8-2.73,219.74,219.74,0,0,1,31.74-10.31c3.51-.86,7.31-1.78,9.64-4.55,1.09-1.29,1.78-2.91,3.06-4a10.73,10.73,0,0,1,3.68-1.81c2.39-.82,14.07-6.51,15.66-3.58.64,1.17-1.12,5-1.07,6.72C379.11,266.44,380,268.75,378.26,270.2Zm88-34.43c-3.66.9-7.42-.94-10.5-3.11-3.82-2.7-7.35-6.07-11.85-7.34-2.47-.7-5.07-.71-7.59-1.15-5.78-1-11.62-11.14-16.58-14.26-.07,1.48-9.6,13-9.67,14.5-5.71-9.31-1-22-6.7-31.29-9-14.62-11.21-16-1.76-18.25,18.58-4.33,26.43,26.08,38.46,32.55a25.17,25.17,0,0,0,7.18,2.27c5,1,10.07,1.6,14.75,3.54s9,5.51,10.38,10.39S471.16,234.57,466.24,235.77Zm125.48,11.92c-3.74,2.86-7.56,5.78-12,7.23s-9.81,1.18-13.37-1.89c-4.23,4.73-9.72,9.91-15.94,8.67,3.62-11,14-18.51,24.58-23.31,5.5-2.5,22.39-12.39,28.22-9.28C614,234.9,596.41,244.08,591.72,247.69Z" fill="#405266"/>
    <path d="M462,213.23c-4.68-1.94-9.78-2.56-14.75-3.54a25.17,25.17,0,0,1-7.18-2.27c-12-6.47-19.88-36.88-38.46-32.55-9.45,2.21-7.25,3.63,1.76,18.25,5.73,9.3,1,22,6.7,31.29.07-1.48,9.6-13,9.67-14.5,5,3.12,10.8,13.25,16.58,14.26,2.52.44,5.12.45,7.59,1.15,4.5,1.27,8,4.64,11.85,7.34,3.08,2.17,6.84,4,10.5,3.11,4.92-1.2,7.5-7.28,6.12-12.15S466.66,215.18,462,213.23Z" fill="#7f8a97"/>
    <path d="M603.17,229.11c-5.83-3.11-22.72,6.78-28.22,9.28-10.59,4.8-21,12.26-24.58,23.31,6.22,1.24,11.71-3.94,15.94-8.67,3.56,3.07,8.89,3.35,13.37,1.89s8.3-4.37,12-7.23C596.41,244.08,614,234.9,603.17,229.11Z" fill="#7f8a97"/>
    <path d="M175.65,261.69l-13.38-1a18.83,18.83,0,0,1-7.85-1.94c11.06,8.61,26.3,26.77,39.45,31.23-1.14-.39.17-2,1.29-2.41,6.13-2.36,9.33-10.34,6.53-16.28A25.81,25.81,0,0,1,175.65,261.69Z" fill="#7f8a97"/>
    <path d="M380.12,257.84c-1.59-2.93-13.27,2.76-15.66,3.58a10.73,10.73,0,0,0-3.68,1.81c-1.28,1.1-2,2.72-3.06,4-2.33,2.77-6.13,3.69-9.64,4.55a219.74,219.74,0,0,0-31.74,10.31,15.41,15.41,0,0,0-4.8,2.73,5.38,5.38,0,0,0-1.79,5c.53,2.22,2.86,3.56,5.1,4s4.58.25,6.82.74c3.73.83,6.86,3.48,10.59,4.29,4.55,1,9.24-.92,13.16-3.43s7.45-5.65,11.68-7.61c2.58-1.19,5.42-1.94,7.66-3.69,4.55-3.57,5.9-10.72,11.27-12.89a8,8,0,0,0,2.23-1c1.74-1.45.85-3.76.79-5.64C379,262.86,380.76,259,380.12,257.84Z" fill="#7f8a97"/>
  </g>
  <path id="gore1" d="M149.46,271.7c2-.23,4.22-.41,5.95.66,2.21,1.36,2.85,4.2,3.93,6.56,2.2,4.81,6.67,8.13,11,11.23,25.42,18.35,52.13,37.25,83.13,42C276,335.52,299,331,320.88,324.45c37.39-11.29,72.6-28.74,107.17-46.9,14.11-7.41,28.74-15.12,44.65-16,22.34-1.2,42.94,11.23,64.78,16.06,26.81,5.94,54.79.27,81.32-6.47,14.8-3.77,29.44-8.08,44-12.65,17.94-5.63,43.56-10.58,63.47-.23a5.48,5.48,0,0,1,2.78,3.46c6.56,24.3,5.64,62.05-10.31,84.71-9.25,13.13-55.62,6-68.32,15.8-43.87,34-104.22,33.92-159.71,33.59C380.63,395.21,269,399.36,162.09,373c-43.36-10.69-69.19-15.69-119.94-22.94-8.48-1.21-5.92-2.59-12.08-8.46-8.13-7.74-2.37-28,3.62-30.2,20.35-7.59,23.49-21.73,44.57-26.93A563.42,563.42,0,0,1,149.46,271.7Z" fill="#2a3d54"/>
  <g id="gore2">
    <path id="gore2b" d="M142.62,317.34c6.12.49,12.81,1.91,18.94,1.74,18.68-.55,48.57-19.27,66.66-24,53.82-14.06,95,49.85,147.62,31.72,8.86-3.06,17.09-8.21,26.36-9.64,9.5-1.48,19.1,1.09,28.51,3.1a249,249,0,0,0,101.55.44c9.6-2,22.14-8.91,31.84-7.5,6.1.89,21.85,6.77,27.79,8.46C634,333.62,668,308.6,709.13,323.48c4.08,1.47,8.16,3.45,10.85,6.83,7.93,10-.15,24.32-8.15,34.23-14,17.37-28.45,34.73-46.19,48.31s-39.28,23.25-61.61,23c-25.74-.24-49.49-13.28-74.67-18.59-47.08-9.93-95,7.48-142.55,14.76-94.56,14.5-190.14-11.3-282.33-36.87-12.07-3.35-24.36-6.79-34.92-13.54C61.1,376.22,52.72,370,45.78,362.75c-12-12.59-26.58-18.13-20.54-38.66,11.12-8.7,104.22-11.85,117.38-6.75" fill="#132946"/>
    <path id="jezero" d="M183,335.78c-11.59.79-13.27.44-24.83,1.6-1.3.13-15.95,5.16-16.91,6-5.71,5.2-10.59,7.76-16.69,12.67-12.31,9.46,36.94,25.69,55.35,27.58,20.79,2.15,43.07,13.33,64,13.29,18.22,0,46.7,5.1,64,7.25,21.8,2.72,62.55,2,84.57,2,21.44.05,46.38-20.69,67.66-18.12,30.17,3.65,41-2.85,71.39-.28,27.72,2.35,54.27,18.4,88.1,17.2,8-.29,55.46-31.6,32.62-37.07-18.9-4.53-52.91-4.13-71.29-2.42a175.37,175.37,0,0,1-42.92-1.75c-13.71-2.27-29.11-6.47-42.86-8.3-36.25-4.83-64.56,9-94.24,4.83-33.42-4.66-64.42,6.34-97.86,2.42-43.24-5.07-50-4.26-90.62-19.33C200.43,341,210.09,335,183,335.78Z" fill="url(#linear-gradient)"/>
  </g>
  <g id="luna">
    <path d="M543,111.44A38.06,38.06,0,1,0,581,149.5,38.05,38.05,0,0,0,543,111.44ZM546.2,141a4.5,4.5,0,1,1-4.5-4.5A4.49,4.49,0,0,1,546.2,141Zm-22-15.5a3,3,0,1,1-3,3A3,3,0,0,1,524.2,125.5Zm-8,25a6,6,0,1,1,6-6A6,6,0,0,1,516.2,150.5Zm8.5,14a.5.5,0,1,1,.5-.5A.5.5,0,0,1,524.7,164.5Zm2.5,10a1,1,0,1,1,1-1A1,1,0,0,1,527.2,174.5Zm.5-26a1.5,1.5,0,1,1,1.5-1.5A1.5,1.5,0,0,1,527.7,148.5Zm6.5,12a1,1,0,1,1,1-1A1,1,0,0,1,534.2,160.5Zm1-39a3,3,0,1,1,3,3A3,3,0,0,1,535.2,121.5Zm6.5,56a5.5,5.5,0,1,1,5.5-5.5A5.5,5.5,0,0,1,541.7,177.5Zm3-16a3.5,3.5,0,1,1,3.5-3.5A3.5,3.5,0,0,1,544.7,161.5Zm5.5-28a2,2,0,1,1,2-2A2,2,0,0,1,550.2,133.5Zm4.5,29a1.5,1.5,0,1,1,1.5-1.5A1.5,1.5,0,0,1,554.7,162.5Zm2.5-22.5a6.5,6.5,0,1,1,6.5,6.5A6.5,6.5,0,0,1,557.2,140Zm9.5,31.5a2.5,2.5,0,1,1,2.5-2.5A2.5,2.5,0,0,1,566.7,171.5Zm6.5-12a4,4,0,1,1,4-4A4,4,0,0,1,573.2,159.5Z" fill="#fffffa"/>
    <circle cx="524.2" cy="128.5" r="3" fill="#f9f8c5"/>
    <circle cx="538.2" cy="121.5" r="3" fill="#f9f8c5"/>
    <circle cx="527.7" cy="147" r="1.5" fill="#f9f8c5"/>
    <circle cx="554.7" cy="161" r="1.5" fill="#f9f8c5"/>
    <circle cx="516.2" cy="144.5" r="6" fill="#f9f8c5"/>
    <circle cx="534.2" cy="159.5" r="1" fill="#f9f8c5"/>
    <circle cx="527.2" cy="173.5" r="1" fill="#f9f8c5"/>
    <circle cx="524.7" cy="164" r="0.5" fill="#f9f8c5"/>
    <circle cx="541.7" cy="141" r="4.5" fill="#f9f8c5"/>
    <circle cx="563.7" cy="140" r="6.5" fill="#f9f8c5"/>
    <circle cx="573.2" cy="155.5" r="4" fill="#f9f8c5"/>
    <circle cx="566.7" cy="169" r="2.5" fill="#f9f8c5"/>
    <circle cx="550.2" cy="131.5" r="2" fill="#f9f8c5"/>
    <circle cx="544.7" cy="158" r="3.5" fill="#f9f8c5"/>
    <circle cx="541.7" cy="172" r="5.5" fill="#f9f8c5"/>
  </g>
  <g id="zvezde">
    <circle cx="214.2" cy="154.5" r="3" fill="#f9f8c5"/>
    <circle cx="304.2" cy="114.5" r="2" fill="#f9f8c5"/>
    <circle cx="258.7" cy="186" r="1.5" fill="#f9f8c5"/>
    <circle cx="448.7" cy="96" r="1.5" fill="#f9f8c5"/>
    <circle cx="445.2" cy="138.5" r="2" fill="#f9f8c5"/>
    <circle cx="680.7" cy="169" r="2.5" fill="#f9f8c5"/>
    <circle cx="664.2" cy="85.5" r="3" fill="#f9f8c5"/>
    <circle cx="366.7" cy="47" r="2.5" fill="#f9f8c5"/>
    <circle cx="89.7" cy="153" r="1.5" fill="#f9f8c5"/>
    <circle cx="159.7" cy="112" r="0.5" fill="#f9f8c5"/>
    <circle cx="77.7" cy="222" r="1.5" fill="#f9f8c5"/>
    <circle cx="230.7" cy="72" r="2.5" fill="#f9f8c5"/>
    <circle cx="548.7" cy="33" r="1.5" fill="#f9f8c5"/>
    <circle cx="602.2" cy="68.5" r="4" fill="#f9f8c5"/>
    <circle cx="467.7" cy="43" r="1.5" fill="#f9f8c5"/>
  </g>
</svg>
