<svg id="noc" xmlns="http://www.w3.org/2000/svg" viewBox="0 0 1369 768">
  <title>triglav</title>
  <rect width="1369" height="768" fill="none"/>
  <g id="triglav">
    <path d="M1312.23,461.77c-7.77-16.21-51.18-30.22-64.63-38.83-5.92-3.79-12.6-3.31-19-5.9-9.44-3.82-5.73-10.41-15.2-15.38-8.82-4.61-48.74-8.51-51.08-18.81-23-1.4-38.57,13.19-60.35,15.18-5.44,6.72-23.2,12.91-32.35,17.1-12.25,5.61-30.21,3.45-43.47,2.62-11.31-.7-13.1-6.43-20.35-10.4s-23.6,3-29-2.59c-3.14-3.23-1.83-11.37-6-15.91-8.26-9-12.63-18.69-25.45-24.17-19-8.14-35.08-16.2-52.45-27.81-12.88-8.6-27.22-22.76-41.12-25.85-6.59-1.47-12.75-4.36-18.68-5.91-5-1.32-8.65-1.52-13.32-3.75-3.69-1.76-4.59-3.74-7.57-5.75-14.92-10-29.06-7-46.49,1.87C752.76,304,737,312.05,728.22,324c-2,2.74-1.69,5.24-3.75,7.74-4.39,5.32-12,8.83-17.32,13.14-4.87,3.91-9.74,8.33-14.2,12.18-9.53,8.24-19.35,16.07-28.44,24.66-6.7,6.34-14.53,9.91-24,11.93s-11.9-3.31-20.61-5.06c-14.65-3-17.42,13.63-29.2,15.88-8.38,1.6-16.49-3.4-25.58.1-4.1,1.57-7.94,3.51-12.15,5.54-17.36,8.35-28.33,6.36-38,22.67-3.49,5.87-8.16,15.13-16.09,13-7.19-1.95-8.17-12.52-18.38-11.49-6.62.67-12.11,8.28-19.33,7.2-3.21-.47-10.59-6.83-13.93-8.58-7.12-3.72-9.62-6.4-17.43-3-8.71,3.83-18.46,14.84-25.21,20.31-6.37,5.15-12.13,11.56-19.1,16.09-7.68,5-17,6.72-23.23,13.91-4.48,5.18-7,11.58-12.21,16.25-5.78,5.22-13.1,7.69-19.74,11.84-5.74,3.59-34.92,21.55-36.5,20.45q-17.69,11-34.46,23.36c-7.55,4.16-15,22.7-11.26,30.11,12,18.51,22.92,23.7,42.64,33.38,16,7.83,30.87,5.73,48.2,11.12,15.43,4.79,32.37,27.65,48.21,29.66,26.23,3.33,63.4,3.91,89,9.27,31.15,6.53,69.77,8.6,102,13,84.3,11.46,180.73-15.7,265.34-5.29,27.16,3.34,54.52,4.58,81.72,7.5,24.63,2.64,47.68,5.7,72.59,3.72,31.14-2.48,62.37-5.26,93.53-7.3,22.06-1.45,43.86-1.19,65-8.47,40.41-13.94,70.42-30.25,93.33-67.35,11.18-18.1,40.35-39.45,49.7-58.15C1332.63,476.6,1324.71,487.81,1312.23,461.77ZM507.91,503.63c-1.73.66-3.73,3.1-2,3.69-20.17-6.84-43.56-34.71-60.53-47.92,3.84,2.05,7.73,2.67,12,3L478,463.86a39.59,39.59,0,0,0,40,14.79C522.22,487.76,517.3,500,507.91,503.63Zm281-26.72a12.27,12.27,0,0,1-3.44,1.59c-8.23,3.33-10.3,14.29-17.29,19.77-3.43,2.69-7.79,3.84-11.75,5.67-6.48,3-11.91,7.83-17.92,11.68s-13.21,6.77-20.19,5.26c-5.73-1.24-10.53-5.31-16.25-6.58-3.43-.76-7-.47-10.46-1.15s-7-2.73-7.84-6.15c-.66-2.76.7-5.69,2.76-7.64a23.31,23.31,0,0,1,7.36-4.18,337.15,337.15,0,0,1,48.7-15.83c5.39-1.31,11.22-2.72,14.8-7,1.66-2,2.73-4.48,4.69-6.17a16.64,16.64,0,0,1,5.65-2.77c3.66-1.25,21.59-10,24-5.5,1,1.8-1.71,7.71-1.63,10.32C790.15,471.15,791.52,474.7,788.86,476.91Zm135-52.82c-5.62,1.37-11.38-1.45-16.11-4.78-5.86-4.14-11.28-9.31-18.19-11.26-3.78-1.07-7.77-1.09-11.64-1.76-8.87-1.55-17.83-17.09-25.45-21.89-.1,2.27-14.72,20-14.83,22.25-8.76-14.27-1.48-33.74-10.27-48-13.83-22.44-17.21-24.62-2.7-28,28.5-6.65,40.55,40,59,49.94a38.87,38.87,0,0,0,11,3.49c7.62,1.51,15.45,2.45,22.63,5.43s13.83,8.45,15.94,15.94S931.4,422.25,923.85,424.09Zm192.53,18.28c-5.72,4.4-11.6,8.88-18.47,11.11s-15,1.8-20.51-2.92c-6.49,7.27-14.91,15.22-24.46,13.31,5.56-17,21.47-28.4,37.72-35.77,8.44-3.82,34.36-19,43.3-14.23C1150.59,422.75,1123.58,436.84,1116.38,442.37Z" fill="#405266"/>
    <path d="M917.31,389.5c-7.18-3-15-3.92-22.63-5.43a38.87,38.87,0,0,1-11-3.49c-18.46-9.93-30.51-56.59-59-49.94-14.51,3.38-11.13,5.56,2.7,28,8.79,14.27,1.51,33.74,10.27,48,.11-2.26,14.73-20,14.83-22.25,7.62,4.8,16.58,20.34,25.45,21.89,3.87.67,7.86.69,11.64,1.76,6.91,1.95,12.33,7.12,18.19,11.26,4.73,3.33,10.49,6.15,16.11,4.78,7.55-1.84,11.51-11.17,9.4-18.65S924.49,392.49,917.31,389.5Z" fill="#7f8a97"/>
    <path d="M1134,413.87c-8.94-4.78-34.86,10.41-43.3,14.23-16.25,7.37-32.16,18.81-37.72,35.77,9.55,1.91,18-6,24.46-13.31,5.47,4.72,13.65,5.14,20.51,2.92s12.75-6.71,18.47-11.11C1123.58,436.84,1150.59,422.75,1134,413.87Z" fill="#7f8a97"/>
    <path d="M478,463.86l-20.54-1.48c-4.31-.31-8.2-.93-12-3,17,13.21,40.36,41.08,60.53,47.92-1.74-.59.26-3,2-3.69,9.39-3.62,14.31-15.87,10-25A39.59,39.59,0,0,1,478,463.86Z" fill="#7f8a97"/>
    <path d="M791.7,457.94c-2.43-4.48-20.36,4.25-24,5.5a16.64,16.64,0,0,0-5.65,2.77c-2,1.69-3,4.19-4.69,6.17-3.58,4.25-9.41,5.66-14.8,7a337.15,337.15,0,0,0-48.7,15.83,23.31,23.31,0,0,0-7.36,4.18c-2.06,1.95-3.42,4.88-2.76,7.64.82,3.42,4.39,5.47,7.84,6.15s7,.39,10.46,1.15c5.72,1.27,10.52,5.34,16.25,6.58,7,1.51,14.17-1.42,20.19-5.26s11.44-8.68,17.92-11.68c4-1.83,8.32-3,11.75-5.67,7-5.48,9.06-16.44,17.29-19.77a12.27,12.27,0,0,0,3.44-1.59c2.66-2.21,1.29-5.76,1.21-8.65C790,465.65,792.68,459.74,791.7,457.94Z" fill="#7f8a97"/>
  </g>
</svg>
